<svg width="24" height="24" viewBox="0 0 24 24" fill="none" xmlns="http://www.w3.org/2000/svg">
<path d="M24 12C24 18.6274 18.6274 24 12 24C5.37258 24 0 18.6274 0 12C0 5.37258 5.37258 0 12 0C18.6274 0 24 5.37258 24 12Z" fill="#FF2D55"/>
<path d="M6.68 9.264C6.696 9.072 6.728 8.808 6.776 8.472C6.968 6.68 7.112 5.616 7.208 5.28C7.304 4.928 7.52 4.648 7.856 4.44C8.464 4.376 9.184 4.312 10.016 4.248C10.864 4.168 11.88 4.136 13.064 4.152C14.264 4.168 14.968 4.288 15.176 4.512C15.384 4.736 15.576 5.32 15.752 6.264C15.944 7.208 16.136 8.32 16.328 9.6C16.52 10.88 16.696 11.832 16.856 12.456C17.048 13.128 17.304 13.84 17.624 14.592C17.96 15.344 18.216 15.952 18.392 16.416C18.568 16.864 18.624 17.2 18.56 17.424C18.496 17.648 18.056 17.808 17.24 17.904C16.424 17.984 15.576 18.008 14.696 17.976C13.832 17.944 13.24 17.88 12.92 17.784C12.664 17.704 12.496 17.536 12.416 17.28C12.352 17.024 12.336 16.632 12.368 16.104C12.4 15.576 12.408 15.264 12.392 15.168C12.392 14.944 12.504 14.736 12.728 14.544C12.952 14.352 13.2 14.2 13.472 14.088C13.744 13.976 13.992 13.848 14.216 13.704C14.44 13.544 14.552 13.384 14.552 13.224C14.52 12.904 14.352 12.816 14.048 12.96C13.936 13.024 13.72 13.16 13.4 13.368C13.16 13.528 12.968 13.648 12.824 13.728C12.6 13.872 12.376 13.96 12.152 13.992C11.944 14.024 11.744 14.016 11.552 13.968C11.36 13.92 11.176 13.864 11 13.8C10.84 13.736 10.664 13.672 10.472 13.608C10.28 13.528 10.112 13.488 9.968 13.488C9.616 13.472 9.456 13.536 9.488 13.68C9.536 13.904 9.96 14.232 10.76 14.664C11.08 14.824 11.296 15.072 11.408 15.408C11.536 15.728 11.568 16.056 11.504 16.392C11.44 16.712 11.336 17.008 11.192 17.28C11.064 17.536 10.92 17.688 10.76 17.736C10.536 17.816 10.008 17.88 9.176 17.928C8.344 17.976 7.488 17.952 6.608 17.856C5.744 17.744 5.248 17.536 5.12 17.232C4.976 16.944 4.992 16.464 5.168 15.792C5.36 15.12 5.624 14.168 5.96 12.936C6.296 11.688 6.536 10.464 6.68 9.264ZM11.816 8.568C11.752 8.232 11.688 7.976 11.624 7.8C11.576 7.608 11.504 7.48 11.408 7.416C11.328 7.336 11.272 7.288 11.24 7.272C11.208 7.256 11.12 7.264 10.976 7.296C10.848 7.328 10.76 7.352 10.712 7.368C10.6 7.416 10.512 7.488 10.448 7.584C10.384 7.68 10.352 7.8 10.352 7.944C10.352 8.088 10.36 8.232 10.376 8.376C10.392 8.504 10.432 8.664 10.496 8.856C10.576 9.048 10.64 9.216 10.688 9.36C10.736 9.488 10.8 9.648 10.88 9.84C10.976 10.032 11.04 10.168 11.072 10.248C11.264 10.712 11.464 11 11.672 11.112C11.88 11.208 12.136 11.152 12.44 10.944C12.552 10.864 12.616 10.784 12.632 10.704C12.664 10.624 12.648 10.52 12.584 10.392C12.52 10.264 12.448 10.128 12.368 9.984C12.288 9.84 12.192 9.64 12.08 9.384C11.968 9.128 11.88 8.856 11.816 8.568Z" fill="white"/>
</svg>
